<svg width="27" height="32" viewBox="0 0 27 32" fill="none" xmlns="http://www.w3.org/2000/svg">
<path d="M22.4962 30.7161C20.7516 32.4048 18.8468 32.1382 17.0132 31.3383C15.0729 30.5206 13.2927 30.485 11.2455 31.3383C8.68203 32.4403 7.32911 32.1204 5.79816 30.7161C-2.88908 21.775 -1.60736 8.15897 8.25479 7.66126C10.658 7.78568 12.3314 8.97664 13.7377 9.0833C15.8383 8.65668 17.8499 7.43017 20.0929 7.59015C22.781 7.80346 24.8104 8.86999 26.1455 10.7897C20.5914 14.1138 21.9087 21.4195 27 23.4637C25.9853 26.13 24.668 28.7786 22.4784 30.7339L22.4962 30.7161ZM13.5597 7.5546C13.2927 3.59066 16.5148 0.31996 20.2175 0C20.7338 4.58609 16.0519 7.99899 13.5597 7.5546Z" fill="black"/>
</svg>
