<svg width="24" height="22" viewBox="0 0 24 22" fill="none" xmlns="http://www.w3.org/2000/svg">
<path d="M12.9873 0.572288L23.8473 19.4595C23.9473 19.6335 24 19.8309 24 20.0318C24 20.2327 23.9473 20.4301 23.8473 20.6041C23.7472 20.7781 23.6033 20.9226 23.43 21.0231C23.2567 21.1236 23.0601 21.1765 22.86 21.1765H1.14001C0.939892 21.1765 0.743303 21.1236 0.57 21.0231C0.396696 20.9226 0.252784 20.7781 0.152729 20.6041C0.052673 20.4301 -1.27095e-06 20.2327 0 20.0318C1.27099e-06 19.8309 0.0526782 19.6335 0.152736 19.4595L11.0127 0.572288C11.1128 0.398289 11.2567 0.2538 11.43 0.153343C11.6033 0.0528858 11.7999 0 12 0C12.2001 0 12.3967 0.0528858 12.57 0.153343C12.7433 0.2538 12.8872 0.398289 12.9873 0.572288ZM10.86 15.4531V17.7424H13.14V15.4531H10.86ZM10.86 7.44035V13.1637H13.14V7.44035H10.86Z" fill="#FFDE49"/>
</svg>
