<svg width="24" height="20" viewBox="0 0 24 20" fill="none" xmlns="http://www.w3.org/2000/svg">
<path d="M12.9873 0.540494L23.8473 18.3784C23.9473 18.5427 24 18.7291 24 18.9189C24 19.1087 23.9473 19.2951 23.8473 19.4594C23.7472 19.6238 23.6033 19.7603 23.43 19.8552C23.2567 19.95 23.0601 20 22.86 20H1.14001C0.939892 20 0.743303 19.95 0.57 19.8552C0.396696 19.7603 0.252784 19.6238 0.152729 19.4594C0.052673 19.2951 -1.27095e-06 19.1087 0 18.9189C1.27099e-06 18.7291 0.0526782 18.5427 0.152736 18.3784L11.0127 0.540494C11.1128 0.376162 11.2567 0.2397 11.43 0.144824C11.6033 0.0499477 11.7999 0 12 0C12.2001 0 12.3967 0.0499477 12.57 0.144824C12.7433 0.2397 12.8872 0.376162 12.9873 0.540494ZM10.86 14.5946V16.7568H13.14V14.5946H10.86ZM10.86 7.027V12.4324H13.14V7.027H10.86Z" fill="#F96265"/>
</svg>
