<?xml version="1.0" encoding="utf-8"?>
<!-- Uploaded to: SVG Repo, www.svgrepo.com, Generator: SVG Repo Mixer Tools -->
<svg width="800px" height="800px" viewBox="0 0 24 24" xmlns="http://www.w3.org/2000/svg">
<defs>
<style>.cls-1{fill:none;stroke:#020202;stroke-linecap:square;stroke-miterlimit:10;stroke-width:1.91px;}</style>
</defs>
<g id="dollar_1" data-name="dollar 1">
<line class="cls-1" x1="12" y1="1.5" x2="12" y2="4.36"/>
<line class="cls-1" x1="12" y1="19.64" x2="12" y2="22.5"/>
<path class="cls-1" d="M6.27,16.77h0a2.87,2.87,0,0,0,2.87,2.87h4.77a3.82,3.82,0,0,0,3.82-3.82h0A3.82,3.82,0,0,0,13.91,12H10.09A3.82,3.82,0,0,1,6.27,8.18h0a3.82,3.82,0,0,1,3.82-3.82h4.77a2.87,2.87,0,0,1,2.87,2.87h0"/>
</g>
</svg>