<svg width="15" height="14" viewBox="0 0 15 14" fill="none" xmlns="http://www.w3.org/2000/svg">
<path d="M11.8205 6.48266C11.6685 6.48266 11.5228 6.54303 11.4153 6.65048C11.3079 6.75793 11.2475 6.90367 11.2475 7.05563V10.4934C11.2475 10.6454 11.1872 10.7911 11.0797 10.8986C10.9722 11.006 10.8265 11.0664 10.6746 11.0664H3.79892C3.64696 11.0664 3.50123 11.006 3.39377 10.8986C3.28632 10.7911 3.22595 10.6454 3.22595 10.4934V3.61782C3.22595 3.46586 3.28632 3.32012 3.39377 3.21267C3.50123 3.10521 3.64696 3.04485 3.79892 3.04485H7.23674C7.3887 3.04485 7.53443 2.98448 7.64189 2.87703C7.74934 2.76958 7.80971 2.62384 7.80971 2.47188C7.80971 2.31992 7.74934 2.17418 7.64189 2.06673C7.53443 1.95928 7.3887 1.89891 7.23674 1.89891H3.79892C3.34304 1.89891 2.90583 2.08001 2.58347 2.40237C2.26112 2.72472 2.08002 3.16193 2.08002 3.61782V10.4934C2.08002 10.9493 2.26112 11.3865 2.58347 11.7089C2.90583 12.0313 3.34304 12.2123 3.79892 12.2123H10.6746C11.1304 12.2123 11.5676 12.0313 11.89 11.7089C12.2124 11.3865 12.3935 10.9493 12.3935 10.4934V7.05563C12.3935 6.90367 12.3331 6.75793 12.2256 6.65048C12.1182 6.54303 11.9724 6.48266 11.8205 6.48266Z" fill="#0C2825"/>
<path d="M9.52802 3.04485H10.4333L6.82933 6.64309C6.77563 6.69636 6.73301 6.75973 6.70392 6.82955C6.67483 6.89937 6.65985 6.97426 6.65985 7.0499C6.65985 7.12554 6.67483 7.20043 6.70392 7.27025C6.73301 7.34007 6.77563 7.40344 6.82933 7.45671C6.8826 7.51041 6.94597 7.55304 7.01579 7.58213C7.08561 7.61121 7.1605 7.62619 7.23614 7.62619C7.31178 7.62619 7.38667 7.61121 7.45649 7.58213C7.52631 7.55304 7.58969 7.51041 7.64295 7.45671L11.2469 3.85846V4.76375C11.2469 4.91572 11.3073 5.06145 11.4147 5.1689C11.5222 5.27636 11.6679 5.33672 11.8199 5.33672C11.9719 5.33672 12.1176 5.27636 12.225 5.1689C12.3325 5.06145 12.3929 4.91572 12.3929 4.76375V2.47188C12.3929 2.31992 12.3325 2.17418 12.225 2.06673C12.1176 1.95928 11.9719 1.89891 11.8199 1.89891H9.52802C9.37606 1.89891 9.23032 1.95928 9.12287 2.06673C9.01541 2.17418 8.95505 2.31992 8.95505 2.47188C8.95505 2.62384 9.01541 2.76958 9.12287 2.87703C9.23032 2.98448 9.37606 3.04485 9.52802 3.04485Z" fill="#0C2825"/>
</svg>
