<svg width="14" height="14" viewBox="0 0 14 14" fill="none" xmlns="http://www.w3.org/2000/svg">
<g clip-path="url(#clip0_40_8256)">
<path d="M11.583 7.42727C11.431 7.42727 11.2853 7.48764 11.1778 7.59509C11.0704 7.70254 11.01 7.84828 11.01 8.00024V11.4381C11.01 11.59 10.9497 11.7358 10.8422 11.8432C10.7348 11.9507 10.589 12.011 10.4371 12.011H3.56144C3.40947 12.011 3.26374 11.9507 3.15629 11.8432C3.04883 11.7358 2.98847 11.59 2.98847 11.4381V4.56243C2.98847 4.41047 3.04883 4.26473 3.15629 4.15728C3.26374 4.04983 3.40947 3.98946 3.56144 3.98946H6.99925C7.15121 3.98946 7.29695 3.92909 7.4044 3.82164C7.51185 3.71419 7.57222 3.56845 7.57222 3.41649C7.57222 3.26453 7.51185 3.11879 7.4044 3.01134C7.29695 2.90389 7.15121 2.84352 6.99925 2.84352H3.56144C3.10555 2.84352 2.66834 3.02462 2.34599 3.34698C2.02363 3.66933 1.84253 4.10655 1.84253 4.56243V11.4381C1.84253 11.8939 2.02363 12.3311 2.34599 12.6535C2.66834 12.9759 3.10555 13.157 3.56144 13.157H10.4371C10.8929 13.157 11.3302 12.9759 11.6525 12.6535C11.9749 12.3311 12.156 11.8939 12.156 11.4381V8.00024C12.156 7.84828 12.0956 7.70254 11.9882 7.59509C11.8807 7.48764 11.735 7.42727 11.583 7.42727Z" fill="#0C2825"/>
<path d="M9.29053 2.98946H10.1958L6.59185 6.5877C6.53814 6.64097 6.49552 6.70434 6.46643 6.77416C6.43734 6.84398 6.42236 6.91887 6.42236 6.99451C6.42236 7.07015 6.43734 7.14504 6.46643 7.21486C6.49552 7.28468 6.53814 7.34805 6.59185 7.40132C6.64511 7.45502 6.70848 7.49765 6.7783 7.52673C6.84813 7.55582 6.92302 7.5708 6.99865 7.5708C7.07429 7.5708 7.14918 7.55582 7.219 7.52673C7.28883 7.49765 7.3522 7.45502 7.40546 7.40132L11.0094 3.80307V4.70836C11.0094 4.86032 11.0698 5.00606 11.1773 5.11351C11.2847 5.22097 11.4304 5.28133 11.5824 5.28133C11.7344 5.28133 11.8801 5.22097 11.9876 5.11351C12.095 5.00606 12.1554 4.86032 12.1554 4.70836V2.41649C12.1554 2.26453 12.095 2.11879 11.9876 2.01134C11.8801 1.90389 11.7344 1.84352 11.5824 1.84352H9.29053C9.13857 1.84352 8.99283 1.90389 8.88538 2.01134C8.77793 2.11879 8.71756 2.26453 8.71756 2.41649C8.71756 2.56845 8.77793 2.71419 8.88538 2.82164C8.99283 2.92909 9.13857 2.98946 9.29053 2.98946Z" fill="#0C2825"/>
</g>
<defs>
<clipPath id="clip0_40_8256">
<rect width="13.7513" height="13.7513" fill="white" transform="translate(0.124268 0.124374)"/>
</clipPath>
</defs>
</svg>
