<svg width="40" height="40" viewBox="0 0 40 40" fill="none" xmlns="http://www.w3.org/2000/svg">
<g style="mix-blend-mode:multiply">
<circle cx="20" cy="20" r="20" fill="#F2F5F3"/>
</g>
<path d="M21.743 11.25C18.9868 11.25 16.493 12.86 15.3643 15.3713C13.8155 16.0712 12.573 17.3137 11.873 18.8625C10.2805 22.3888 11.8468 26.5363 15.3643 28.1287C18.8818 29.7213 23.038 28.155 24.6305 24.6375C27.1418 23.5087 28.7518 21.0063 28.7518 18.25C28.743 14.3825 25.6105 11.25 21.743 11.25ZM18.1905 24.6987L15.2418 21.75L18.1905 18.8012L21.1393 21.75L18.1905 24.6987ZM25.2255 22.17C25.243 21.89 25.243 21.6013 25.2255 21.3212C24.9893 17.4625 21.673 14.5225 17.8143 14.7588C18.8118 13.6388 20.238 12.9913 21.7343 13C23.2305 13 24.6568 13.6388 25.6543 14.7588C27.5793 16.9288 27.3868 20.245 25.2168 22.17H25.2255Z" fill="#004644"/>
</svg>
