<svg width="32" height="32" viewBox="0 0 32 32" fill="none" xmlns="http://www.w3.org/2000/svg">
<g clip-path="url(#clip0_1733_12194)">
<g clip-path="url(#clip1_1733_12194)">
<path d="M20.0232 6.68726V13.013L22.2361 14.4048C22.316 14.4223 22.3988 14.4223 22.4787 14.4048L31.9933 7.99006C31.9863 7.67874 31.8724 7.37929 31.6707 7.14205C31.469 6.9048 31.1918 6.74421 30.8857 6.68726H20.0232Z" fill="#0072C6"/>
<path d="M20.0227 15.3737L22.0404 16.7596C22.1349 16.8172 22.2434 16.8476 22.354 16.8476C22.4646 16.8476 22.5731 16.8172 22.6676 16.7596C22.3211 16.9687 31.9916 10.5482 31.9916 10.5482V22.1741C32.0168 22.4097 31.9903 22.648 31.9138 22.8722C31.8373 23.0964 31.7128 23.3013 31.5488 23.4723C31.3849 23.6434 31.1856 23.7766 30.9648 23.8626C30.7441 23.9485 30.5072 23.9852 30.2707 23.9701H20.0215L20.0227 15.3737ZM9.57715 12.4574C9.2419 12.4558 8.91245 12.5449 8.62373 12.7153C8.335 12.8857 8.09774 13.131 7.9371 13.4252C7.49834 14.2053 7.28782 15.093 7.32959 15.987C7.28399 16.8791 7.4948 17.7656 7.9371 18.5418C8.09707 18.8239 8.32848 19.059 8.60809 19.2234C8.88769 19.3877 9.20564 19.4756 9.52997 19.4782C9.85431 19.4808 10.1736 19.3979 10.4558 19.238C10.738 19.0781 10.9731 18.8467 11.1375 18.5672C11.575 17.7946 11.7814 16.9127 11.7323 16.0262C11.7824 15.1119 11.5828 14.2012 11.1548 13.3917C11.0019 13.1071 10.7741 12.8696 10.4961 12.7049C10.218 12.5403 9.90029 12.4547 9.57715 12.4574Z" fill="#0072C6"/>
<path d="M0.00585938 3.47394V28.2214L18.8318 32.1691V-0.169983L0.00585938 3.47394ZM12.6043 20.0316C12.2521 20.528 11.7838 20.9308 11.2403 21.2048C10.6967 21.4788 10.0944 21.6157 9.48584 21.6035C8.89258 21.614 8.30556 21.4811 7.77469 21.2161C7.24383 20.9511 6.78482 20.5617 6.43672 20.0812C5.61113 18.9286 5.19814 17.5313 5.26443 16.1151C5.1942 14.6294 5.61466 13.1618 6.46098 11.9387C6.8176 11.4327 7.29321 11.0223 7.8459 10.7435C8.39858 10.4648 9.01136 10.3263 9.63021 10.3402C10.2192 10.3284 10.802 10.4613 11.3276 10.7274C11.8532 10.9934 12.3055 11.3843 12.6447 11.8659C13.462 13.0436 13.868 14.458 13.7996 15.8898C13.8716 17.3648 13.4511 18.8218 12.6043 20.0316Z" fill="#0072C6"/>
</g>
</g>
<defs>
<clipPath id="clip0_1733_12194">
<rect width="32" height="32" fill="white"/>
</clipPath>
<clipPath id="clip1_1733_12194">
<rect width="32" height="32" fill="white"/>
</clipPath>
</defs>
</svg>
