<svg width="412" height="24" viewBox="0 0 412 24" fill="none" xmlns="http://www.w3.org/2000/svg">
<line x1="0.5" y1="12.5" x2="411.5" y2="12.5" stroke="#BFD1D0" stroke-linecap="round"/>
<circle cx="206" cy="12" r="11.5" fill="#F7FAF9" stroke="#BFD1D0"/>
<path fill-rule="evenodd" clip-rule="evenodd" d="M202.146 8.14646C202.342 7.9512 202.658 7.9512 202.854 8.14646L206.061 11.354L209.269 8.14645C209.464 7.95118 209.781 7.95118 209.976 8.14645C210.171 8.34171 210.171 8.65829 209.976 8.85355L206.061 12.7682L202.146 8.85357C201.951 8.65831 201.951 8.34173 202.146 8.14646Z" fill="#ABBDBD"/>
<path fill-rule="evenodd" clip-rule="evenodd" d="M202.146 12.0853C202.342 11.8901 202.658 11.8901 202.854 12.0853L206.061 15.2929L209.269 12.0853C209.464 11.8901 209.781 11.8901 209.976 12.0853C210.171 12.2806 210.171 12.5972 209.976 12.7924L206.061 16.7071L202.146 12.7925C201.951 12.5972 201.951 12.2806 202.146 12.0853Z" fill="#ABBDBD"/>
</svg>
