<svg width="97" height="95" viewBox="0 0 97 95" fill="none" xmlns="http://www.w3.org/2000/svg">
<g clip-path="url(#clip0_730_610)">
<path d="M42.0107 14.925L50.6371 0L59.2745 14.925L50.6371 19.8926L42.0107 14.925Z" fill="#00C5C1"/>
<path d="M34.8135 27.3606L39.1431 19.8926L50.6486 26.5272L62.1651 19.8926L66.4838 27.3606L50.6486 36.4845L34.8135 27.3606Z" fill="#00C5C1"/>
<path d="M27.6157 39.8181L31.9344 32.3391L50.6157 43.1189L69.2971 32.3391L73.6157 39.8181L73.0004 39.9497C66.5388 41.3095 57.6157 46.4416 53.2201 51.3326C52.8872 51.7031 52.4798 51.9995 52.0244 52.2024C51.5691 52.4053 51.076 52.5102 50.5773 52.5102C50.0786 52.5102 49.5855 52.4053 49.1301 52.2024C48.6747 51.9995 48.2673 51.7031 47.9344 51.3326C43.5388 46.4416 34.6157 41.3095 28.1542 39.9497L27.6157 39.8181Z" fill="#00C5C1"/>
<path d="M50.6371 19.8926L42.0107 14.925L50.6371 0V19.8926Z" fill="#009A96"/>
<path d="M50.6486 36.4845L34.8135 27.3606L39.1431 19.8926L50.6486 26.5272V36.4845Z" fill="#009A96"/>
<path d="M50.6485 52.5059C50.1509 52.5064 49.6588 52.4021 49.2044 52.1999C48.7499 51.9977 48.3433 51.7022 48.0111 51.3326C43.6155 46.4416 34.6924 41.3095 28.2309 39.9497L27.6045 39.8181L31.9232 32.3391L50.6045 43.1189L50.6485 52.5059Z" fill="#009A96"/>
<path d="M19.78 84.1986V83.6503C19.7588 80.9566 20.7962 78.3618 22.6697 76.4225C24.5432 74.4831 27.1037 73.3537 29.802 73.2763C36.5493 73.1886 39.9559 78.4304 39.9559 84.4728C39.9559 84.9114 39.9559 85.3391 39.8789 85.8106H24.5383C24.6722 87.2899 25.3685 88.6619 26.4844 89.6448C27.6002 90.6278 29.0508 91.1472 30.5383 91.0963C31.6023 91.1014 32.6554 90.8823 33.6287 90.4533C34.602 90.0244 35.4737 89.3952 36.1866 88.607L38.9888 91.0963C37.9639 92.3575 36.6613 93.3658 35.1823 94.0429C33.7033 94.72 32.0878 95.0476 30.4613 95.0003C29.0359 95.039 27.6177 94.785 26.2948 94.254C24.9718 93.723 23.7724 92.9264 22.7708 91.9135C21.7692 90.9006 20.9869 89.6932 20.4724 88.366C19.958 87.0389 19.7223 85.6204 19.78 84.1986ZM35.1646 82.6633C34.846 79.5818 33.0328 77.1802 29.8679 77.1802C26.9558 77.1802 24.9009 79.4283 24.4613 82.6633H35.1646Z" fill="#003C3A"/>
<path d="M57.9448 94.5173H53.1646V65.391L56.747 67.4417C57.1107 67.6526 57.4127 67.9549 57.6229 68.3186C57.8331 68.6822 57.944 69.0945 57.9448 69.5143V94.5173Z" fill="#003C3A"/>
<path d="M48.2309 94.5173H43.4507V65.391L47.0331 67.4417C47.3968 67.6526 47.6989 67.9549 47.909 68.3186C48.1192 68.6822 48.2302 69.0945 48.2309 69.5143V94.5173Z" fill="#003C3A"/>
<path d="M13.6047 94.5177H8.7915V73.2762L12.3739 75.3379C12.7384 75.5479 13.0411 75.85 13.2513 76.2139C13.4616 76.5778 13.5721 76.9905 13.5717 77.4105L13.6047 94.5177Z" fill="#003C3A"/>
<path d="M22.4286 66.6635H0V71.4338H22.4286V66.6635Z" fill="#003C3A"/>
<path d="M61.4612 84.1986V83.6503C61.44 80.9566 62.4773 78.3618 64.3509 76.4225C66.2244 74.4831 68.7849 73.3537 71.4832 73.2763C78.2304 73.1886 81.648 78.4304 81.648 84.4728C81.648 84.9114 81.648 85.3391 81.5601 85.8106H66.2414C66.3753 87.2899 67.0717 88.6619 68.1875 89.6449C69.3033 90.6278 70.7539 91.1472 72.2414 91.0963C73.3054 91.1014 74.3585 90.8823 75.3319 90.4533C76.3052 90.0244 77.1768 89.3952 77.8898 88.607L80.692 91.0963C79.6687 92.3594 78.3664 93.3691 76.887 94.0464C75.4077 94.7237 73.7913 95.0501 72.1645 95.0003C70.7373 95.0421 69.3167 94.7904 67.9911 94.2607C66.6656 93.7311 65.4634 92.9349 64.4595 91.9217C63.4555 90.9086 62.6712 89.7 62.1554 88.3714C61.6396 87.0427 61.4033 85.6223 61.4612 84.1986ZM76.9227 82.6633C76.615 79.5818 74.7909 77.1803 71.637 77.1803C68.7139 77.1803 66.659 79.4283 66.2194 82.6633H76.9227Z" fill="#003C3A"/>
<path d="M84.8789 73.2762H87.9119C88.388 73.2791 88.8435 73.4699 89.1792 73.8069C89.5148 74.1438 89.7031 74.5996 89.7031 75.0747V94.5177H84.8789V73.2762Z" fill="#003C3A"/>
<path d="M96.9998 73.2762V78.0465H89.6592L92.5383 74.4825C92.7473 74.1167 93.0495 73.8125 93.4142 73.6007C93.7789 73.3889 94.1932 73.277 94.6152 73.2762H96.9998Z" fill="#003C3A"/>
</g>
<defs>
<clipPath id="clip0_730_610">
<rect width="97" height="95" fill="white"/>
</clipPath>
</defs>
</svg>
