<svg width="69" height="24" viewBox="0 0 69 24" fill="none" xmlns="http://www.w3.org/2000/svg">
<g clip-path="url(#clip0_35_4994)">
<path d="M6.39697 6.78733L10.2311 0.00012207L14.0701 6.78733L10.2311 9.0514L6.39697 6.78733Z" fill="#00C5C1"/>
<path d="M3.20117 12.4499L5.12068 9.05136L10.2361 12.0668L15.3564 9.05136L17.2759 12.4499L10.2361 16.5999L3.20117 12.4499Z" fill="#00C5C1"/>
<path d="M0 18.1127L1.91951 14.7141L10.2309 19.6155L18.552 14.7141L20.4618 18.1127L20.1841 18.1724C17.3146 18.7944 13.3635 21.1232 11.4147 23.3524C11.2667 23.5207 11.0857 23.6552 10.8834 23.7474C10.6811 23.8395 10.4621 23.8871 10.2406 23.8871C10.0191 23.8871 9.80015 23.8395 9.59787 23.7474C9.39558 23.6552 9.21454 23.5207 9.06651 23.3524C7.11777 21.1232 3.15209 18.7944 0.297183 18.1724L0 18.1127Z" fill="#00C5C1"/>
<path d="M10.2311 9.0514L6.39697 6.78733L10.2311 0.00012207V9.0514Z" fill="#009A96"/>
<path d="M10.2361 16.5999L3.20117 12.4499L5.12068 9.05136L10.2361 12.0668V16.5999Z" fill="#009A96"/>
<path d="M10.2309 23.8848C10.0097 23.8845 9.79095 23.837 9.58877 23.7453C9.38658 23.6536 9.20538 23.5198 9.05677 23.3524C7.10803 21.1232 3.14234 18.7944 0.287439 18.1724L0 18.1127L1.91951 14.7141L10.2309 19.6155V23.8848Z" fill="#009A96"/>
<path d="M34.668 13.7637V13.5149C34.6586 12.29 35.1195 11.11 35.9519 10.2282C36.7844 9.34633 37.922 8.83278 39.1208 8.79767C42.1219 8.75786 43.637 11.1413 43.637 13.8881C43.637 14.0871 43.637 14.2812 43.6029 14.5001H36.7824C36.8394 15.1776 37.1496 15.8066 37.6484 16.2568C38.1473 16.707 38.7966 16.9439 39.4619 16.9184C39.9342 16.9199 40.4015 16.8201 40.8337 16.6255C41.2659 16.431 41.6533 16.1459 41.9709 15.7889L43.2181 16.9184C42.7621 17.4927 42.1823 17.9515 41.5239 18.2588C40.8655 18.5661 40.1464 18.7137 39.4229 18.6899C38.7876 18.709 38.1552 18.5941 37.5654 18.3523C36.9755 18.1106 36.4407 17.7472 35.9945 17.285C35.5483 16.8227 35.2002 16.2714 34.972 15.6655C34.7437 15.0597 34.6402 14.4122 34.668 13.7637ZM41.5324 13.0621C41.3911 11.6638 40.558 10.5741 39.1793 10.5741C37.8785 10.5741 36.9675 11.5942 36.7726 13.0621H41.5324Z" fill="#003C3A"/>
<path d="M51.6417 18.461H49.5176V5.20999L51.1058 6.1405C51.2683 6.23636 51.4034 6.37414 51.4974 6.54006C51.5915 6.70598 51.6412 6.89421 51.6417 7.08593V18.461Z" fill="#003C3A"/>
<path d="M47.3253 18.461H45.2012V5.20999L46.7699 6.1405C46.9325 6.23636 47.0675 6.37414 47.1616 6.54006C47.2556 6.70598 47.3054 6.89421 47.3058 7.08593L47.3253 18.461Z" fill="#003C3A"/>
<path d="M31.9352 18.4609H29.811V8.79761L31.3993 9.73309C31.5618 9.82775 31.6969 9.96458 31.791 10.1297C31.8851 10.2949 31.9348 10.4825 31.9352 10.6735V18.4609Z" fill="#003C3A"/>
<path d="M35.8569 5.78711H25.8892V7.95663H35.8569V5.78711Z" fill="#003C3A"/>
<path d="M53.2055 13.7637V13.5149C53.1961 12.29 53.657 11.11 54.4894 10.2282C55.3219 9.34633 56.4595 8.83278 57.6583 8.79767C60.6594 8.75786 62.1746 11.1413 62.1746 13.8881C62.1746 14.0871 62.1746 14.2812 62.1405 14.5001H55.3199C55.3756 15.1736 55.682 15.7996 56.1758 16.2494C56.6697 16.6992 57.3136 16.9387 57.975 16.9184C58.4478 16.9184 58.9154 16.818 59.3482 16.6236C59.781 16.4291 60.1694 16.1449 60.4889 15.7889L61.7556 16.9184C61.2995 17.4877 60.7213 17.9422 60.0657 18.2467C59.4102 18.5513 58.6948 18.6978 57.975 18.675C57.3398 18.696 56.7071 18.5831 56.1165 18.3432C55.5259 18.1033 54.9901 17.7416 54.5425 17.2807C54.095 16.8198 53.7452 16.2697 53.5152 15.6645C53.2851 15.0594 53.1797 14.4123 53.2055 13.7637ZM60.0699 13.0621C59.9286 11.6638 59.0955 10.5741 57.7168 10.5741C56.416 10.5741 55.505 11.5942 55.3101 13.0621H60.0699Z" fill="#003C3A"/>
<path d="M63.6167 8.79761H64.937C65.1489 8.79761 65.3521 8.88358 65.5019 9.03663C65.6518 9.18967 65.7359 9.39723 65.7359 9.61367V18.4609H63.6167V8.79761Z" fill="#003C3A"/>
<path d="M69 8.79761V10.9472H65.7358L67.0171 9.32506C67.111 9.15903 67.2459 9.02108 67.4083 8.92503C67.5708 8.82897 67.7551 8.77817 67.9428 8.77771L69 8.79761Z" fill="#003C3A"/>
</g>
<defs>
<clipPath id="clip0_35_4994">
<rect width="69" height="23.8846" fill="white"/>
</clipPath>
</defs>
</svg>
