<svg width="256" height="86" viewBox="0 0 256 86" fill="none" xmlns="http://www.w3.org/2000/svg">
<g clip-path="url(#clip0_5144_28276)">
<path d="M24.2344 24.9284L38.3707 0.831055L52.525 24.9284L38.3707 32.9667L24.2344 24.9284Z" fill="#00C5C1"/>
<path d="M12.4512 45.0341L19.5283 32.9678L38.3887 43.6738L57.2671 32.9678L64.3442 45.0341L38.3887 59.7681L12.4512 45.0341Z" fill="#00C5C1"/>
<path d="M0.650391 65.1376L7.72754 53.0713L38.3712 70.473L69.0508 53.0713L76.092 65.1376L75.0682 65.3496C64.4884 67.558 49.921 75.826 42.7361 83.7406C42.1903 84.338 41.5228 84.8158 40.777 85.1428C40.0312 85.4699 39.2237 85.6389 38.4071 85.6389C37.5906 85.6389 36.7831 85.4699 36.0373 85.1428C35.2915 84.8158 34.624 84.338 34.0782 83.7406C26.8933 75.826 12.272 67.558 1.74609 65.3496L0.650391 65.1376Z" fill="#00C5C1"/>
<path d="M38.3707 32.9667L24.2344 24.9284L38.3707 0.831055V32.9667Z" fill="#009A96"/>
<path d="M38.3887 59.7681L12.4512 45.0341L19.5283 32.9678L38.3887 43.6738V59.7681Z" fill="#009A96"/>
<path d="M38.3712 85.6309C37.5556 85.6298 36.7492 85.461 36.0038 85.1355C35.2583 84.8099 34.5902 84.3348 34.0423 83.7406C26.8574 75.826 12.2361 67.558 1.71017 65.3496L0.650391 65.1376L7.72754 53.0713L38.3712 70.4729V85.6309Z" fill="#009A96"/>
<path d="M128.469 49.6966V48.8132C128.435 44.4642 130.134 40.275 133.203 37.1441C136.272 34.0132 140.467 32.1899 144.887 32.0652C155.952 31.9239 161.538 40.3862 161.538 50.1382C161.538 50.8449 161.538 51.5339 161.412 52.3112H136.265C136.475 54.7164 137.619 56.9497 139.458 58.5482C141.297 60.1467 143.692 60.9878 146.144 60.8972C147.886 60.9023 149.609 60.5481 151.202 59.8573C152.796 59.1665 154.224 58.1546 155.395 56.8869L159.993 60.8972C158.312 62.9362 156.174 64.565 153.747 65.6561C151.319 66.7472 148.668 67.271 146.001 67.1866C143.658 67.2543 141.327 66.8464 139.152 65.9881C136.977 65.1299 135.005 63.8398 133.36 62.1985C131.715 60.5572 130.432 58.5999 129.59 56.4488C128.749 54.2978 128.367 51.9992 128.469 49.6966ZM153.778 47.2056C153.257 42.2412 150.186 38.3722 145.102 38.3722C140.307 38.3722 136.948 41.9939 136.229 47.2056H153.778Z" fill="#F6F6F6"/>
<path d="M191.05 66.3735H183.219V19.3271L189.074 22.6308C189.674 22.9712 190.172 23.4603 190.519 24.0494C190.865 24.6385 191.049 25.3068 191.05 25.9875V66.3735Z" fill="#F6F6F6"/>
<path d="M175.136 66.3735H167.305V19.3271L173.089 22.6308C173.688 22.9712 174.186 23.4603 174.533 24.0494C174.879 24.6385 175.063 25.3068 175.064 25.9875L175.136 66.3735Z" fill="#F6F6F6"/>
<path d="M118.392 66.3741H110.561V32.0654L116.416 35.3868C117.015 35.7229 117.514 36.2086 117.861 36.795C118.208 37.3813 118.391 38.0474 118.392 38.7258V66.3741Z" fill="#F6F6F6"/>
<path d="M132.852 21.377H96.1016V29.0796H132.852V21.377Z" fill="#F6F6F6"/>
<path d="M196.817 49.6966V48.8132C196.782 44.4642 198.482 40.275 201.551 37.1441C204.62 34.0132 208.814 32.1899 213.234 32.0652C224.299 31.9239 229.885 40.3862 229.885 50.1382C229.885 50.8449 229.885 51.5339 229.76 52.3112H204.612C204.818 54.7023 205.948 56.9249 207.768 58.5219C209.589 60.119 211.963 60.969 214.402 60.8972C216.145 60.8972 217.869 60.5407 219.465 59.8503C221.06 59.1599 222.493 58.1507 223.67 56.8869L228.341 60.8972C226.659 62.9183 224.527 64.5319 222.11 65.6132C219.693 66.6946 217.056 67.2148 214.402 67.1336C212.06 67.2083 209.727 66.8073 207.55 65.9556C205.372 65.1039 203.397 63.8198 201.747 62.1835C200.096 60.5472 198.807 58.5938 197.959 56.4453C197.11 54.2968 196.722 51.9994 196.817 49.6966ZM222.126 47.2056C221.605 42.2412 218.533 38.3722 213.45 38.3722C208.654 38.3722 205.295 41.9939 204.576 47.2056H222.126Z" fill="#F6F6F6"/>
<path d="M235.203 32.0654H240.071C240.852 32.0654 241.601 32.3707 242.154 32.914C242.706 33.4574 243.017 34.1943 243.017 34.9628V66.3741H235.203V32.0654Z" fill="#F6F6F6"/>
<path d="M255.05 32.0668V39.6988H243.016L247.74 33.9394C248.086 33.3499 248.583 32.8602 249.182 32.5191C249.781 32.1781 250.46 31.9977 251.153 31.9961L255.05 32.0668Z" fill="#F6F6F6"/>
</g>
<defs>
<clipPath id="clip0_5144_28276">
<rect x="0.650391" y="0.831055" width="254.4" height="84.8" rx="16" fill="white"/>
</clipPath>
</defs>
</svg>
