<?xml version="1.0" encoding="UTF-8"?>
<svg xmlns:xodm="http://www.corel.com/coreldraw/odm/2003" xmlns="http://www.w3.org/2000/svg" xmlns:xlink="http://www.w3.org/1999/xlink" version="1.1" id="Layer_1" x="0px" y="0px" viewBox="0 0 2171 2500" style="enable-background:new 0 0 2171 2500;" xml:space="preserve">
<style type="text/css">
	.st0{fill-rule:evenodd;clip-rule:evenodd;}
</style>
<g id="Layer_x0020_1">
	<g id="_1557375708800">
		<path d="M851.2,568.6c-27.1-3.9-28.4-5.2-15.5-6.4c24.5-3.9,81.2,1.3,121.2,10.3c92.8,21.9,176.6,78.6,265.6,177.9l23.2,27.1    l33.5-5.2c143.1-23.2,290.1-5.2,412.6,51.6c33.5,15.5,86.4,46.4,92.8,54.2c2.6,2.6,6.4,19.3,9,36.1c9,60.6,5.2,105.7-14.2,140.5    c-10.3,19.3-10.3,24.5-3.9,41.3c5.2,12.9,20.6,21.9,34.8,21.9c30.9,0,63.2-49,78.7-117.3l6.4-27.1l11.6,12.9    c65.8,73.5,117.3,175.4,125.1,247.6l2.6,19.3l-11.6-16.8c-19.3-29.7-37.4-49-61.9-65.8c-43.8-29.7-90.3-38.7-212.7-45.1    c-110.9-6.4-174.1-15.5-235.9-36.1c-105.7-34.8-159.9-79.9-284.9-246.3c-55.4-73.5-90.3-113.5-125.1-147    C1026.6,622.7,950.5,584.1,851.2,568.6L851.2,568.6z"></path>
		<path d="M1811.8,732.3c2.6-49,9-81.2,23.2-110.9c5.1-11.6,10.3-21.9,11.6-21.9c1.3,0-1.3,9-5.2,19.3    c-10.3,28.4-11.6,68.3-5.2,113.5c9,58,12.9,65.8,74.8,128.9c28.4,29.7,61.9,67,74.8,82.5l21.9,28.4l-21.9-20.6    c-27.1-25.8-89-74.8-103.1-81.2c-9-5.2-10.3-5.2-16.8,1.3c-5.2,5.2-6.4,12.9-6.4,50.3c-1.3,58-9,94.1-28.4,131.5    c-10.3,19.3-11.6,15.5-2.6-6.4c6.4-16.8,7.7-24.5,7.7-79.9c0-112.2-12.9-139.3-91.6-184.4c-19.3-11.6-52.9-28.4-72.2-37.4    c-20.6-9-36.1-16.8-34.8-16.8c2.6-2.6,78.6,19.3,108.3,32.2c45.1,18.1,52.9,19.3,58,18.1C1807.9,774.9,1810.5,764.6,1811.8,732.3    L1811.8,732.3z"></path>
		<path d="M904.1,924.4c-54.2-74.8-89-190.8-81.2-277.2l2.6-27.1l12.9,2.6c23.2,3.9,63.2,19.3,82.5,30.9    c51.6,30.9,74.8,73.5,96.7,179.2c6.4,30.9,15.5,67,19.3,78.7c6.4,19.3,30.9,64.5,51.6,92.8c14.2,20.6,5.1,30.9-27.1,28.4    C1012.4,1027.6,946.6,982.5,904.1,924.4L904.1,924.4z"></path>
		<path d="M1746,1485.3c-255.3-103.1-345.5-192.1-345.5-343c0-21.9,1.3-40,1.3-40c1.3,0,10.3,7.7,21.9,16.8    c51.6,41.3,109.6,59.3,270.8,82.5c94.1,14.2,148.3,24.5,197.3,41.3c156,51.6,252.7,157.3,275.9,300.4    c6.4,41.3,2.6,119.9-7.7,161.2c-9,32.2-34.8,91.5-41.3,92.8c-1.3,0-3.9-6.4-3.9-16.8c-2.6-54.1-29.7-105.7-74.8-145.7    C1985.8,1588.5,1916.2,1553.6,1746,1485.3L1746,1485.3z"></path>
		<path d="M1565.5,1527.9c-2.6-19.3-9-43.8-12.9-54.2l-6.4-19.3l11.6,14.2c16.8,19.3,29.7,42.5,41.3,74.8c9,24.5,9,32.2,9,72.2    c0,38.7-1.3,47.7-9,69.6c-12.9,34.8-28.4,59.3-54.1,86.4c-46.4,47.7-107,73.5-193.4,85.1c-15.5,1.3-59.3,5.2-98,7.7    c-96.7,5.2-161.2,15.5-219.2,36.1c-7.7,2.6-15.5,5.2-16.8,3.9c-2.6-2.6,37.4-25.8,69.6-41.3c45.1-21.9,91.5-33.5,193.4-51.6    c50.3-7.7,101.9-18.1,114.8-23.2C1523,1748.3,1586.1,1649.1,1565.5,1527.9L1565.5,1527.9z"></path>
		<path d="M1682.8,1735.4c-33.5-73.5-41.3-143.1-23.2-208.9c2.6-6.4,5.2-12.9,7.7-12.9c2.6,0,10.3,3.9,18,9    c15.5,10.3,47.7,28.4,130.2,73.5c104.4,56.7,163.7,100.6,205,150.8c36.1,43.8,58,94.1,68.3,156c6.4,34.8,2.6,118.6-6.4,153.4    c-28.4,109.6-92.8,197.3-187,247.6c-14.2,7.7-25.8,12.9-27.1,12.9c-1.3,0,3.9-12.9,11.6-28.4c30.9-65.8,34.8-128.9,11.6-199.8    c-14.2-43.8-43.8-96.7-103.1-185.7C1717.7,1799.9,1700.9,1772.8,1682.8,1735.4L1682.8,1735.4z"></path>
		<path d="M722.3,2130c95.4-79.9,212.7-136.7,321-154.7c46.4-7.7,123.8-5.2,166.3,6.4c68.3,18.1,130.2,56.7,162.5,104.4    c30.9,46.4,45.1,86.4,59.3,175.3c5.2,34.8,11.6,70.9,12.9,78.6c10.3,46.4,30.9,82.5,56.7,101.9c40,29.7,109.6,30.9,177.9,5.2    c11.6-3.9,21.9-7.7,21.9-6.4c2.6,2.6-32.2,25.8-55.4,37.4c-32.2,16.8-58,21.9-92.8,21.9c-61.9,0-114.8-32.2-157.3-96.7    c-9-12.9-27.1-50.3-42.6-85.1c-45.1-104.4-68.3-135.4-121.2-170.2c-46.4-29.7-105.7-36.1-150.8-14.2    c-59.3,28.4-74.8,104.4-33.5,150.8c16.8,19.3,47.7,34.8,73.5,38.7c47.7,6.4,89-30.9,89-78.6c0-31-11.6-49-42.6-63.2    c-41.3-18.1-86.4,2.6-85.1,42.5c0,16.8,7.7,27.1,24.5,34.8c10.3,5.2,10.3,5.2,2.6,3.9c-37.4-7.7-46.4-54.1-16.8-83.8    c36.1-36.1,112.2-20.6,138,29.7c10.3,20.6,11.6,61.9,2.6,87.7c-21.9,56.7-83.8,86.4-147,69.6c-42.6-11.6-60.6-23.2-112.2-76.1    c-90.3-92.8-125.1-110.9-254-130.2l-24.5-3.9L722.3,2130L722.3,2130z"></path>
		<path class="st0" d="M44.1,55.4c300.4,364.9,763.3,932.2,786.5,963.1c19.3,25.8,11.6,50.3-20.6,68.3    c-18.1,10.3-55.4,20.6-73.5,20.6c-20.6,0-45.1-10.3-61.9-27.1c-11.6-11.6-61.9-85.1-175.3-261.7    c-86.4-135.4-159.9-247.6-161.2-248.8c-5.2-2.6-5.2-2.6,152.1,278.5c99.3,176.6,131.5,239.8,131.5,247.6c0,16.8-5.2,25.8-25.8,49    c-34.8,38.7-50.3,82.5-61.9,174.1c-12.9,101.9-47.7,174.1-147,296.6c-58,72.2-67,85.1-81.2,114.7c-18.1,36.1-23.2,56.7-25.8,103.1    c-2.6,49,2.6,79.9,16.8,126.4c12.9,41.3,27.1,68.3,61.9,121.2c29.7,46.4,47.7,81.2,47.7,94.1c0,10.3,2.6,10.3,49,0    c110.9-25.8,202.4-69.6,252.7-123.8c30.9-33.5,38.7-51.6,38.7-98c0-29.7-1.3-36.1-9-54.1c-12.9-28.4-37.4-51.6-90.3-87.7    c-69.6-47.7-99.3-86.4-107-138c-6.4-43.8,1.3-73.5,40-154.7c40-83.8,50.3-118.6,56.7-203.7c3.9-54.2,10.3-76.1,25.8-92.8    c16.8-18.1,30.9-24.5,70.9-29.7c65.8-9,108.3-25.8,141.8-58c29.7-27.1,42.6-54.1,43.8-94.1l1.3-29.7l-16.8-18    C843.5,923.2,4.1,0,0.3,0C-1,0,19.6,24.5,44.1,55.4L44.1,55.4z M439.9,1888.9c14.2-24.5,6.4-55.4-16.8-70.9    c-21.9-14.2-55.4-7.7-55.4,11.6c0,5.2,2.6,10.3,10.3,12.9c11.6,6.4,12.9,12.9,3.9,27.1c-9,14.2-9,27.1,2.6,36.1    C402.5,1919.8,427,1912.1,439.9,1888.9L439.9,1888.9z"></path>
		<path class="st0" d="M962.1,1210.7c-30.9,9-60.6,42.6-69.6,76.1c-5.2,20.6-2.6,58,6.4,69.6c14.2,18.1,27.1,23.2,63.2,23.2    c70.9,0,131.5-30.9,138-68.3c6.4-30.9-20.6-73.5-58-92.8C1022.7,1208.1,982.7,1204.2,962.1,1210.7z M1044.6,1275.1    c10.3-15.5,6.4-32.2-12.9-43.8c-34.8-21.9-87.7-3.9-87.7,29.7c0,16.8,27.1,34.8,52.9,34.8    C1013.7,1295.8,1036.9,1285.5,1044.6,1275.1z"></path>
	</g>
</g>
</svg>
